<mxfile host="app.diagrams.net" agent="Mozilla/5.0 (Macintosh; Intel Mac OS X 10.15; rv:130.0) Gecko/20100101 Firefox/130.0" version="24.7.16">
  <diagram name="Page-1" id="lXaNqZM-0Tj3juV3bvDM">
    <mxGraphModel dx="1314" dy="1881" grid="1" gridSize="10" guides="1" tooltips="1" connect="1" arrows="1" fold="1" page="1" pageScale="1" pageWidth="850" pageHeight="1100" math="0" shadow="0">
      <root>
        <mxCell id="0" />
        <mxCell id="1" parent="0" />
        <mxCell id="vBaHfqE5TDyvZSrMxQp3-10" style="edgeStyle=orthogonalEdgeStyle;rounded=0;orthogonalLoop=1;jettySize=auto;html=1;exitX=0;exitY=1;exitDx=0;exitDy=0;entryX=0.5;entryY=0;entryDx=0;entryDy=0;strokeColor=#CC6600;strokeWidth=3;startArrow=classic;startFill=1;" parent="1" source="vBaHfqE5TDyvZSrMxQp3-1" target="vBaHfqE5TDyvZSrMxQp3-3" edge="1">
          <mxGeometry relative="1" as="geometry">
            <Array as="points">
              <mxPoint x="210" y="390" />
              <mxPoint x="100" y="390" />
            </Array>
          </mxGeometry>
        </mxCell>
        <mxCell id="vBaHfqE5TDyvZSrMxQp3-52" value="enp6s0" style="edgeLabel;html=1;align=center;verticalAlign=middle;resizable=0;points=[];fontSize=14;" parent="vBaHfqE5TDyvZSrMxQp3-10" vertex="1" connectable="0">
          <mxGeometry x="-0.037" y="1" relative="1" as="geometry">
            <mxPoint x="-30" as="offset" />
          </mxGeometry>
        </mxCell>
        <mxCell id="_xUKE3sM2rI7NT-TXMz9-5" value="192.168.1.102" style="edgeLabel;html=1;align=center;verticalAlign=middle;resizable=0;points=[];rotation=90;" parent="vBaHfqE5TDyvZSrMxQp3-10" vertex="1" connectable="0">
          <mxGeometry x="-0.6963" y="-1" relative="1" as="geometry">
            <mxPoint x="-9" y="19" as="offset" />
          </mxGeometry>
        </mxCell>
        <mxCell id="vBaHfqE5TDyvZSrMxQp3-11" value="enp5s0" style="edgeStyle=orthogonalEdgeStyle;rounded=0;orthogonalLoop=1;jettySize=auto;html=1;entryX=0.5;entryY=0;entryDx=0;entryDy=0;strokeColor=#CC6600;strokeWidth=3;startArrow=classic;startFill=1;fontSize=14;" parent="1" source="vBaHfqE5TDyvZSrMxQp3-1" target="vBaHfqE5TDyvZSrMxQp3-4" edge="1">
          <mxGeometry x="0.375" relative="1" as="geometry">
            <Array as="points">
              <mxPoint x="240" y="320" />
              <mxPoint x="240" y="320" />
            </Array>
            <mxPoint as="offset" />
          </mxGeometry>
        </mxCell>
        <mxCell id="_xUKE3sM2rI7NT-TXMz9-6" value="192.168.1.103" style="edgeLabel;html=1;align=center;verticalAlign=middle;resizable=0;points=[];rotation=90;" parent="vBaHfqE5TDyvZSrMxQp3-11" vertex="1" connectable="0">
          <mxGeometry x="-0.475" y="3" relative="1" as="geometry">
            <mxPoint x="-13" y="18" as="offset" />
          </mxGeometry>
        </mxCell>
        <mxCell id="vBaHfqE5TDyvZSrMxQp3-12" style="edgeStyle=orthogonalEdgeStyle;rounded=0;orthogonalLoop=1;jettySize=auto;html=1;entryX=0.5;entryY=0;entryDx=0;entryDy=0;strokeColor=#CC6600;strokeWidth=3;exitX=0.75;exitY=1;exitDx=0;exitDy=0;startArrow=classic;startFill=1;" parent="1" source="vBaHfqE5TDyvZSrMxQp3-1" target="vBaHfqE5TDyvZSrMxQp3-5" edge="1">
          <mxGeometry relative="1" as="geometry">
            <Array as="points">
              <mxPoint x="300" y="390" />
              <mxPoint x="380" y="390" />
            </Array>
          </mxGeometry>
        </mxCell>
        <mxCell id="vBaHfqE5TDyvZSrMxQp3-53" value="enp1s0f0" style="edgeLabel;html=1;align=center;verticalAlign=middle;resizable=0;points=[];fontSize=14;" parent="vBaHfqE5TDyvZSrMxQp3-12" vertex="1" connectable="0">
          <mxGeometry x="-0.05" y="-1" relative="1" as="geometry">
            <mxPoint x="36" as="offset" />
          </mxGeometry>
        </mxCell>
        <mxCell id="vBaHfqE5TDyvZSrMxQp3-14" value="&lt;font style=&quot;font-size: 14px;&quot;&gt;enp8s0&lt;/font&gt;" style="edgeStyle=orthogonalEdgeStyle;rounded=0;orthogonalLoop=1;jettySize=auto;html=1;exitX=1;exitY=1;exitDx=0;exitDy=0;strokeColor=#CC6600;strokeWidth=3;startArrow=classic;startFill=1;" parent="1" source="vBaHfqE5TDyvZSrMxQp3-1" target="vBaHfqE5TDyvZSrMxQp3-6" edge="1">
          <mxGeometry relative="1" as="geometry">
            <Array as="points">
              <mxPoint x="330" y="370" />
              <mxPoint x="520" y="370" />
            </Array>
            <mxPoint as="offset" />
          </mxGeometry>
        </mxCell>
        <mxCell id="_xUKE3sM2rI7NT-TXMz9-2" value="10.0.0.1" style="edgeStyle=orthogonalEdgeStyle;rounded=0;orthogonalLoop=1;jettySize=auto;html=1;startArrow=classic;startFill=1;strokeWidth=3;strokeColor=#CC6600;" parent="1" source="vBaHfqE5TDyvZSrMxQp3-1" target="vBaHfqE5TDyvZSrMxQp3-2" edge="1">
          <mxGeometry x="-0.5" y="-30" relative="1" as="geometry">
            <mxPoint as="offset" />
          </mxGeometry>
        </mxCell>
        <mxCell id="vBaHfqE5TDyvZSrMxQp3-1" value="&lt;div&gt;High level computer&lt;/div&gt;&lt;div&gt;192.168.0.3&lt;/div&gt;&lt;div&gt;ROS 2 Humble&lt;br&gt;&lt;/div&gt;" style="rounded=0;whiteSpace=wrap;html=1;fillColor=#d5e8d4;strokeColor=#82b366;" parent="1" vertex="1">
          <mxGeometry x="210" y="220" width="120" height="60" as="geometry" />
        </mxCell>
        <mxCell id="vBaHfqE5TDyvZSrMxQp3-40" style="edgeStyle=orthogonalEdgeStyle;rounded=0;orthogonalLoop=1;jettySize=auto;html=1;exitX=1;exitY=0.75;exitDx=0;exitDy=0;entryX=0;entryY=0.75;entryDx=0;entryDy=0;" parent="1" source="vBaHfqE5TDyvZSrMxQp3-2" target="vBaHfqE5TDyvZSrMxQp3-39" edge="1">
          <mxGeometry relative="1" as="geometry" />
        </mxCell>
        <mxCell id="vBaHfqE5TDyvZSrMxQp3-2" value="&lt;div&gt;Nvidia Jetson Orin&lt;br&gt;&lt;/div&gt;&lt;div&gt;192.168.0.5&lt;/div&gt;&lt;div&gt;ROS 1 Noetic / ROS 2 Foxy&lt;br&gt;&lt;/div&gt;" style="rounded=0;whiteSpace=wrap;html=1;gradientColor=#A680B8;fillColor=#B9E0A5;" parent="1" vertex="1">
          <mxGeometry x="490" y="220" width="160" height="60" as="geometry" />
        </mxCell>
        <mxCell id="vBaHfqE5TDyvZSrMxQp3-3" value="&lt;div&gt;RS128&lt;/div&gt;&lt;div&gt;192.168.1.200&lt;br&gt;&lt;/div&gt;" style="rounded=1;whiteSpace=wrap;html=1;" parent="1" vertex="1">
          <mxGeometry x="40" y="440" width="120" height="60" as="geometry" />
        </mxCell>
        <mxCell id="vBaHfqE5TDyvZSrMxQp3-4" value="&lt;div&gt;LS128&lt;br&gt;192.168.1.201&lt;/div&gt;" style="rounded=1;whiteSpace=wrap;html=1;" parent="1" vertex="1">
          <mxGeometry x="180" y="440" width="120" height="60" as="geometry" />
        </mxCell>
        <mxCell id="vBaHfqE5TDyvZSrMxQp3-5" value="&lt;div&gt;Radar&lt;/div&gt;&lt;div&gt;192.168.4.10&lt;br&gt;&lt;/div&gt;" style="rounded=1;whiteSpace=wrap;html=1;" parent="1" vertex="1">
          <mxGeometry x="320" y="440" width="120" height="60" as="geometry" />
        </mxCell>
        <mxCell id="vBaHfqE5TDyvZSrMxQp3-6" value="&lt;div&gt;Basler Camera&lt;br&gt;&lt;/div&gt;&lt;div&gt;192.168.7.3&lt;br&gt;&lt;/div&gt;" style="rounded=1;whiteSpace=wrap;html=1;" parent="1" vertex="1">
          <mxGeometry x="460" y="440" width="120" height="60" as="geometry" />
        </mxCell>
        <mxCell id="vBaHfqE5TDyvZSrMxQp3-43" style="edgeStyle=orthogonalEdgeStyle;rounded=0;orthogonalLoop=1;jettySize=auto;html=1;exitX=0.5;exitY=1;exitDx=0;exitDy=0;entryX=0.5;entryY=0;entryDx=0;entryDy=0;fontSize=14;strokeColor=#00CC00;strokeWidth=3;dashed=1;startArrow=classic;startFill=1;" parent="1" source="vBaHfqE5TDyvZSrMxQp3-7" target="vBaHfqE5TDyvZSrMxQp3-42" edge="1">
          <mxGeometry relative="1" as="geometry" />
        </mxCell>
        <mxCell id="vBaHfqE5TDyvZSrMxQp3-44" value="&lt;font style=&quot;font-size: 14px;&quot;&gt;Lora&lt;/font&gt;" style="edgeLabel;html=1;align=center;verticalAlign=middle;resizable=0;points=[];fontStyle=2" parent="vBaHfqE5TDyvZSrMxQp3-43" vertex="1" connectable="0">
          <mxGeometry x="-0.15" relative="1" as="geometry">
            <mxPoint y="-8" as="offset" />
          </mxGeometry>
        </mxCell>
        <mxCell id="vBaHfqE5TDyvZSrMxQp3-7" value="&lt;div&gt;Raspberry Pi RTS&lt;br&gt;&lt;/div&gt;&lt;div&gt;192.168.0.241&lt;/div&gt;&lt;div&gt;ROS 1 Melodic&lt;br&gt;&lt;/div&gt;" style="rounded=0;whiteSpace=wrap;html=1;fillColor=#e1d5e7;strokeColor=#9673a6;" parent="1" vertex="1">
          <mxGeometry x="885" y="220" width="120" height="60" as="geometry" />
        </mxCell>
        <mxCell id="vBaHfqE5TDyvZSrMxQp3-8" value="&lt;div&gt;Low level computer&lt;br&gt;&lt;/div&gt;&lt;div&gt;192.168.0.2&lt;/div&gt;&lt;div&gt;ROS 1 Kinetic&lt;br&gt;&lt;/div&gt;" style="rounded=0;whiteSpace=wrap;html=1;fillColor=#e1d5e7;strokeColor=#9673a6;" parent="1" vertex="1">
          <mxGeometry x="60" y="220" width="120" height="60" as="geometry" />
        </mxCell>
        <mxCell id="vBaHfqE5TDyvZSrMxQp3-9" value="&lt;div&gt;ZedX Camera&lt;/div&gt;&lt;div&gt;&lt;br&gt;&lt;/div&gt;" style="rounded=1;whiteSpace=wrap;html=1;" parent="1" vertex="1">
          <mxGeometry x="600" y="440" width="120" height="60" as="geometry" />
        </mxCell>
        <mxCell id="vBaHfqE5TDyvZSrMxQp3-15" style="edgeStyle=orthogonalEdgeStyle;rounded=0;orthogonalLoop=1;jettySize=auto;html=1;entryX=0.5;entryY=0;entryDx=0;entryDy=0;strokeWidth=3;strokeColor=#7EA6E0;startArrow=classic;startFill=1;exitX=0.5;exitY=1;exitDx=0;exitDy=0;" parent="1" source="vBaHfqE5TDyvZSrMxQp3-2" target="vBaHfqE5TDyvZSrMxQp3-9" edge="1">
          <mxGeometry relative="1" as="geometry">
            <mxPoint x="550" y="280" as="sourcePoint" />
            <mxPoint x="672" y="435" as="targetPoint" />
            <Array as="points">
              <mxPoint x="570" y="340" />
              <mxPoint x="660" y="340" />
            </Array>
          </mxGeometry>
        </mxCell>
        <mxCell id="vBaHfqE5TDyvZSrMxQp3-38" value="&lt;font style=&quot;font-size: 14px;&quot;&gt;GMSL2&lt;/font&gt;" style="edgeLabel;html=1;align=center;verticalAlign=middle;resizable=0;points=[];fontStyle=2" parent="vBaHfqE5TDyvZSrMxQp3-15" vertex="1" connectable="0">
          <mxGeometry x="0.1407" y="3" relative="1" as="geometry">
            <mxPoint x="-43" y="3" as="offset" />
          </mxGeometry>
        </mxCell>
        <mxCell id="vBaHfqE5TDyvZSrMxQp3-21" style="edgeStyle=orthogonalEdgeStyle;rounded=0;orthogonalLoop=1;jettySize=auto;html=1;exitX=0.25;exitY=1;exitDx=0;exitDy=0;strokeWidth=3;strokeColor=#CC6600;startArrow=classic;startFill=1;entryX=0.5;entryY=0;entryDx=0;entryDy=0;" parent="1" source="vBaHfqE5TDyvZSrMxQp3-16" target="_xUKE3sM2rI7NT-TXMz9-1" edge="1">
          <mxGeometry relative="1" as="geometry">
            <mxPoint x="410" y="50" as="sourcePoint" />
            <Array as="points">
              <mxPoint x="290" y="140" />
              <mxPoint x="800" y="140" />
            </Array>
            <mxPoint x="780" y="150" as="targetPoint" />
          </mxGeometry>
        </mxCell>
        <mxCell id="vBaHfqE5TDyvZSrMxQp3-25" style="edgeStyle=orthogonalEdgeStyle;rounded=0;orthogonalLoop=1;jettySize=auto;html=1;exitX=0.5;exitY=1;exitDx=0;exitDy=0;strokeWidth=3;strokeColor=#CC6600;startArrow=classic;startFill=1;entryX=0.5;entryY=0;entryDx=0;entryDy=0;" parent="1" source="vBaHfqE5TDyvZSrMxQp3-16" target="vBaHfqE5TDyvZSrMxQp3-7" edge="1">
          <mxGeometry relative="1" as="geometry">
            <mxPoint x="950" y="150" as="targetPoint" />
            <Array as="points">
              <mxPoint x="320" y="110" />
              <mxPoint x="945" y="110" />
            </Array>
          </mxGeometry>
        </mxCell>
        <mxCell id="vBaHfqE5TDyvZSrMxQp3-27" style="edgeStyle=orthogonalEdgeStyle;rounded=0;orthogonalLoop=1;jettySize=auto;html=1;exitX=0;exitY=0.5;exitDx=0;exitDy=0;startArrow=classic;startFill=1;strokeWidth=3;strokeColor=#CC6600;" parent="1" source="vBaHfqE5TDyvZSrMxQp3-16" target="vBaHfqE5TDyvZSrMxQp3-17" edge="1">
          <mxGeometry relative="1" as="geometry" />
        </mxCell>
        <mxCell id="vBaHfqE5TDyvZSrMxQp3-46" style="edgeStyle=orthogonalEdgeStyle;rounded=0;orthogonalLoop=1;jettySize=auto;html=1;exitX=1;exitY=0.5;exitDx=0;exitDy=0;strokeWidth=3;strokeColor=#CC6600;startArrow=classic;startFill=1;" parent="1" source="vBaHfqE5TDyvZSrMxQp3-16" edge="1">
          <mxGeometry relative="1" as="geometry">
            <mxPoint x="470" y="30" as="targetPoint" />
            <Array as="points">
              <mxPoint x="470" y="30" />
              <mxPoint x="470" y="30" />
            </Array>
          </mxGeometry>
        </mxCell>
        <mxCell id="_xUKE3sM2rI7NT-TXMz9-3" style="edgeStyle=orthogonalEdgeStyle;rounded=0;orthogonalLoop=1;jettySize=auto;html=1;exitX=0.75;exitY=1;exitDx=0;exitDy=0;entryX=0.5;entryY=1;entryDx=0;entryDy=0;startArrow=classic;startFill=1;strokeWidth=3;strokeColor=#CC6600;" parent="1" source="vBaHfqE5TDyvZSrMxQp3-16" target="vBaHfqE5TDyvZSrMxQp3-49" edge="1">
          <mxGeometry relative="1" as="geometry">
            <Array as="points">
              <mxPoint x="350" y="90" />
              <mxPoint x="700" y="90" />
            </Array>
          </mxGeometry>
        </mxCell>
        <mxCell id="vBaHfqE5TDyvZSrMxQp3-16" value="&lt;div&gt;Router&lt;br&gt;&lt;/div&gt;&lt;div&gt;192.168.0.1&lt;br&gt;&lt;/div&gt;" style="rounded=0;whiteSpace=wrap;html=1;fillColor=#b1ddf0;strokeColor=#10739e;" parent="1" vertex="1">
          <mxGeometry x="260" width="120" height="60" as="geometry" />
        </mxCell>
        <mxCell id="vBaHfqE5TDyvZSrMxQp3-31" style="edgeStyle=orthogonalEdgeStyle;rounded=0;orthogonalLoop=1;jettySize=auto;html=1;exitX=0.25;exitY=1;exitDx=0;exitDy=0;entryX=0.25;entryY=0;entryDx=0;entryDy=0;strokeWidth=3;strokeColor=#CC6600;startArrow=classic;startFill=1;" parent="1" source="vBaHfqE5TDyvZSrMxQp3-17" target="vBaHfqE5TDyvZSrMxQp3-8" edge="1">
          <mxGeometry relative="1" as="geometry">
            <Array as="points">
              <mxPoint x="90" y="120" />
              <mxPoint x="90" y="120" />
            </Array>
          </mxGeometry>
        </mxCell>
        <mxCell id="vBaHfqE5TDyvZSrMxQp3-32" style="edgeStyle=orthogonalEdgeStyle;rounded=0;orthogonalLoop=1;jettySize=auto;html=1;exitX=0.5;exitY=1;exitDx=0;exitDy=0;strokeWidth=3;strokeColor=#CC6600;startArrow=classic;startFill=1;entryX=0.5;entryY=0;entryDx=0;entryDy=0;" parent="1" source="vBaHfqE5TDyvZSrMxQp3-17" target="vBaHfqE5TDyvZSrMxQp3-1" edge="1">
          <mxGeometry relative="1" as="geometry">
            <Array as="points">
              <mxPoint x="120" y="180" />
              <mxPoint x="270" y="180" />
            </Array>
          </mxGeometry>
        </mxCell>
        <mxCell id="vBaHfqE5TDyvZSrMxQp3-51" value="enp1s0f1" style="edgeLabel;html=1;align=center;verticalAlign=middle;resizable=0;points=[];fontSize=14;" parent="vBaHfqE5TDyvZSrMxQp3-32" vertex="1" connectable="0">
          <mxGeometry x="-0.1185" y="-4" relative="1" as="geometry">
            <mxPoint x="43" y="-4" as="offset" />
          </mxGeometry>
        </mxCell>
        <mxCell id="vBaHfqE5TDyvZSrMxQp3-33" style="edgeStyle=orthogonalEdgeStyle;rounded=0;orthogonalLoop=1;jettySize=auto;html=1;exitX=0.75;exitY=1;exitDx=0;exitDy=0;startArrow=classic;startFill=1;strokeWidth=3;strokeColor=#CC6600;entryX=0.5;entryY=0;entryDx=0;entryDy=0;" parent="1" source="vBaHfqE5TDyvZSrMxQp3-17" target="vBaHfqE5TDyvZSrMxQp3-2" edge="1">
          <mxGeometry relative="1" as="geometry">
            <Array as="points">
              <mxPoint x="150" y="160" />
              <mxPoint x="540" y="160" />
            </Array>
          </mxGeometry>
        </mxCell>
        <mxCell id="_xUKE3sM2rI7NT-TXMz9-4" value="eth0" style="edgeLabel;html=1;align=center;verticalAlign=middle;resizable=0;points=[];" parent="vBaHfqE5TDyvZSrMxQp3-33" vertex="1" connectable="0">
          <mxGeometry x="0.8367" relative="1" as="geometry">
            <mxPoint as="offset" />
          </mxGeometry>
        </mxCell>
        <mxCell id="vBaHfqE5TDyvZSrMxQp3-17" value="&lt;div&gt;Switch&lt;br&gt;&lt;/div&gt;&lt;div&gt;no IP address&lt;br&gt;&lt;/div&gt;" style="rounded=0;whiteSpace=wrap;html=1;fillColor=#b1ddf0;strokeColor=#10739e;" parent="1" vertex="1">
          <mxGeometry x="60" width="120" height="60" as="geometry" />
        </mxCell>
        <mxCell id="vBaHfqE5TDyvZSrMxQp3-41" style="edgeStyle=orthogonalEdgeStyle;rounded=0;orthogonalLoop=1;jettySize=auto;html=1;exitX=0;exitY=0.25;exitDx=0;exitDy=0;entryX=1;entryY=0.25;entryDx=0;entryDy=0;" parent="1" source="vBaHfqE5TDyvZSrMxQp3-39" target="vBaHfqE5TDyvZSrMxQp3-2" edge="1">
          <mxGeometry relative="1" as="geometry" />
        </mxCell>
        <mxCell id="vBaHfqE5TDyvZSrMxQp3-39" value="Rosbridge" style="shape=process;whiteSpace=wrap;html=1;backgroundOutline=1;fillColor=#1ba1e2;strokeColor=#006EAF;fontColor=#ffffff;" parent="1" vertex="1">
          <mxGeometry x="680" y="220" width="90" height="60" as="geometry" />
        </mxCell>
        <mxCell id="vBaHfqE5TDyvZSrMxQp3-42" value="&lt;div&gt;RTS Slave Raspberries&lt;/div&gt;&lt;div&gt;+ Theodolites&lt;br&gt;&lt;/div&gt;" style="rounded=1;whiteSpace=wrap;html=1;" parent="1" vertex="1">
          <mxGeometry x="880" y="440" width="130" height="60" as="geometry" />
        </mxCell>
        <mxCell id="vBaHfqE5TDyvZSrMxQp3-49" value="LAN" style="rounded=0;whiteSpace=wrap;html=1;fillColor=#fad7ac;strokeColor=#b46504;" parent="1" vertex="1">
          <mxGeometry x="640" width="120" height="60" as="geometry" />
        </mxCell>
        <mxCell id="c-H09LIcqTzEDLmXKNv2-4" style="edgeStyle=orthogonalEdgeStyle;rounded=0;orthogonalLoop=1;jettySize=auto;html=1;exitX=0.5;exitY=0;exitDx=0;exitDy=0;entryX=0.5;entryY=1;entryDx=0;entryDy=0;strokeWidth=3;strokeColor=#CC6600;" edge="1" parent="1" source="vBaHfqE5TDyvZSrMxQp3-50" target="c-H09LIcqTzEDLmXKNv2-3">
          <mxGeometry relative="1" as="geometry" />
        </mxCell>
        <mxCell id="c-H09LIcqTzEDLmXKNv2-5" style="edgeStyle=orthogonalEdgeStyle;rounded=0;orthogonalLoop=1;jettySize=auto;html=1;exitX=0.5;exitY=0;exitDx=0;exitDy=0;entryX=0.5;entryY=1;entryDx=0;entryDy=0;strokeWidth=3;strokeColor=#CC6600;" edge="1" parent="1" source="vBaHfqE5TDyvZSrMxQp3-50" target="c-H09LIcqTzEDLmXKNv2-2">
          <mxGeometry relative="1" as="geometry" />
        </mxCell>
        <mxCell id="c-H09LIcqTzEDLmXKNv2-6" style="edgeStyle=orthogonalEdgeStyle;rounded=0;orthogonalLoop=1;jettySize=auto;html=1;exitX=0.5;exitY=0;exitDx=0;exitDy=0;entryX=0.5;entryY=1;entryDx=0;entryDy=0;strokeWidth=3;strokeColor=#CC6600;" edge="1" parent="1" source="vBaHfqE5TDyvZSrMxQp3-50" target="c-H09LIcqTzEDLmXKNv2-1">
          <mxGeometry relative="1" as="geometry" />
        </mxCell>
        <mxCell id="vBaHfqE5TDyvZSrMxQp3-50" value="WAN" style="rounded=0;whiteSpace=wrap;html=1;fillColor=#fad7ac;strokeColor=#b46504;" parent="1" vertex="1">
          <mxGeometry x="470" width="120" height="60" as="geometry" />
        </mxCell>
        <mxCell id="_xUKE3sM2rI7NT-TXMz9-1" value="&lt;div&gt;Septentrio&lt;br&gt;&lt;/div&gt;&lt;div&gt;192.168.0.6&lt;br&gt;&lt;/div&gt;" style="rounded=1;whiteSpace=wrap;html=1;" parent="1" vertex="1">
          <mxGeometry x="740" y="440" width="120" height="60" as="geometry" />
        </mxCell>
        <mxCell id="_xUKE3sM2rI7NT-TXMz9-7" value="TODO interface" style="edgeLabel;html=1;align=center;verticalAlign=middle;resizable=0;points=[];" parent="1" vertex="1" connectable="0">
          <mxGeometry x="80" y="185" as="geometry" />
        </mxCell>
        <mxCell id="_xUKE3sM2rI7NT-TXMz9-8" value="enp7s0" style="edgeLabel;html=1;align=center;verticalAlign=middle;resizable=0;points=[];rotation=90;" parent="1" vertex="1" connectable="0">
          <mxGeometry x="360" y="250" as="geometry" />
        </mxCell>
        <mxCell id="_xUKE3sM2rI7NT-TXMz9-9" value="eth1" style="edgeLabel;html=1;align=center;verticalAlign=middle;resizable=0;points=[];rotation=90;" parent="1" vertex="1" connectable="0">
          <mxGeometry x="460" y="250" as="geometry" />
        </mxCell>
        <mxCell id="_xUKE3sM2rI7NT-TXMz9-10" value="TODO interface" style="edgeLabel;html=1;align=center;verticalAlign=middle;resizable=0;points=[];rotation=0;" parent="1" vertex="1" connectable="0">
          <mxGeometry x="945" y="170" as="geometry" />
        </mxCell>
        <mxCell id="_xUKE3sM2rI7NT-TXMz9-11" value="192.168.4.1" style="edgeLabel;html=1;align=center;verticalAlign=middle;resizable=0;points=[];rotation=90;" parent="1" vertex="1" connectable="0">
          <mxGeometry x="290" y="340" as="geometry" />
        </mxCell>
        <mxCell id="_xUKE3sM2rI7NT-TXMz9-12" value="192.168.7.2" style="edgeLabel;html=1;align=center;verticalAlign=middle;resizable=0;points=[];rotation=90;" parent="1" vertex="1" connectable="0">
          <mxGeometry x="320" y="340" as="geometry" />
        </mxCell>
        <mxCell id="_xUKE3sM2rI7NT-TXMz9-15" value="10.0.0.2" style="text;whiteSpace=wrap;html=1;" parent="1" vertex="1">
          <mxGeometry x="425" y="270" width="100" height="30" as="geometry" />
        </mxCell>
        <mxCell id="CwpeyEkSjK2lWXP4DWoM-1" value="&lt;div&gt;Atlans INS&lt;br&gt;&lt;/div&gt;&lt;div&gt;192.168.0.4&lt;br&gt;&lt;/div&gt;" style="rounded=1;whiteSpace=wrap;html=1;" parent="1" vertex="1">
          <mxGeometry x="740" y="350" width="120" height="60" as="geometry" />
        </mxCell>
        <mxCell id="c-H09LIcqTzEDLmXKNv2-1" value="&lt;div&gt;Emlid Reach (back)&lt;br&gt;&lt;/div&gt;&lt;div&gt;192.168.0.200&lt;br&gt;&lt;/div&gt;" style="rounded=1;whiteSpace=wrap;html=1;" vertex="1" parent="1">
          <mxGeometry x="60" y="-120" width="120" height="60" as="geometry" />
        </mxCell>
        <mxCell id="c-H09LIcqTzEDLmXKNv2-2" value="&lt;div&gt;Emlid Reach (middle)&lt;br&gt;&lt;/div&gt;&lt;div&gt;192.168.0.201&lt;br&gt;&lt;/div&gt;" style="rounded=1;whiteSpace=wrap;html=1;" vertex="1" parent="1">
          <mxGeometry x="260" y="-120" width="120" height="60" as="geometry" />
        </mxCell>
        <mxCell id="c-H09LIcqTzEDLmXKNv2-3" value="&lt;div&gt;Emlid Reach (front)&lt;br&gt;&lt;/div&gt;&lt;div&gt;192.168.0.202&lt;br&gt;&lt;/div&gt;" style="rounded=1;whiteSpace=wrap;html=1;" vertex="1" parent="1">
          <mxGeometry x="470" y="-120" width="120" height="60" as="geometry" />
        </mxCell>
      </root>
    </mxGraphModel>
  </diagram>
</mxfile>
